<svg width="103" height="83" viewBox="0 0 103 83" fill="none" xmlns="http://www.w3.org/2000/svg">
<path d="M73.2652 44.4426H96.068V65.7642H73.2652V44.4426Z" fill="#0336DB"/>
<path d="M6.93198 44.4426H29.7348V65.7642H6.93198V44.4426Z" fill="#0336DB"/>
<path d="M40.8369 44.4426H62.1631V79.3342H40.8369V44.4426Z" fill="#0336DB"/>
<path d="M95.3669 0.9888H7.63306C3.42415 0.9888 0 4.41315 0 8.62186V23.3092C0 27.012 1.97169 30.2627 4.92026 32.067V79.9995C4.92026 81.1105 5.82091 82.0112 6.93198 82.0112H96.068C97.1791 82.0112 98.0797 81.1105 98.0797 79.9995V32.067C101.028 30.2627 103 27.012 103 23.3092V8.62186C103 4.41315 99.5757 0.9888 95.3669 0.9888V0.9888ZM82.4805 23.3092C82.4805 26.7479 79.683 29.5453 76.2441 29.5453C72.8053 29.5453 70.0078 26.7479 70.0078 23.3092V5.01224H82.4805V23.3092ZM65.9844 23.3092C65.9844 26.7479 63.1869 29.5453 59.748 29.5453C56.3092 29.5453 53.5117 26.7479 53.5117 23.3092V5.01224H65.9844V23.3092ZM49.4883 23.3092C49.4883 26.7479 46.6908 29.5453 43.252 29.5453C39.8131 29.5453 37.0156 26.7479 37.0156 23.3092V5.01224H49.4883V23.3092ZM32.9922 23.3092C32.9922 26.7479 30.1947 29.5453 26.7559 29.5453C23.317 29.5453 20.5195 26.7479 20.5195 23.3092V5.01224H32.9922V23.3092ZM4.02344 8.62186C4.02344 6.63147 5.64287 5.01224 7.63306 5.01224H16.4961V23.3092C16.4961 26.7479 13.6986 29.5453 10.2598 29.5453C6.82093 29.5453 4.02344 26.7479 4.02344 23.3092V8.62186ZM94.0563 77.9877H8.9437V33.4849C9.37461 33.5402 9.81397 33.569 10.2598 33.569C13.6362 33.569 16.6371 31.9294 18.5078 29.4047C20.3785 31.9294 23.3794 33.569 26.7559 33.569C30.1323 33.569 33.1332 31.9294 35.0039 29.4047C36.8746 31.9294 39.8755 33.569 43.252 33.569C46.6284 33.569 49.6293 31.9294 51.5 29.4047C53.3707 31.9294 56.3716 33.569 59.748 33.569C63.1245 33.569 66.1254 31.9294 67.9961 29.4047C69.8668 31.9294 72.8677 33.569 76.2441 33.569C79.6206 33.569 82.6215 31.9294 84.4922 29.4047C86.3629 31.9294 89.3638 33.569 92.7402 33.569C93.186 33.569 93.6254 33.5404 94.0563 33.4849V77.9877ZM98.9766 23.3092C98.9766 26.7479 96.1791 29.5453 92.7402 29.5453C89.3014 29.5453 86.5039 26.7479 86.5039 23.3092V5.01224H95.3669C97.3573 5.01224 98.9766 6.63147 98.9766 8.62186V23.3092Z" fill="black"/>
</svg>
