<svg width="14" height="24" viewBox="0 0 14 24" fill="none" xmlns="http://www.w3.org/2000/svg">
<path d="M12.9993 0.0049936L9.88701 0C6.39049 0 4.13088 2.31828 4.13088 5.90643V8.62969H1.00164C0.731238 8.62969 0.512268 8.84891 0.512268 9.11932V13.065C0.512268 13.3354 0.731487 13.5544 1.00164 13.5544H4.13088V23.5106C4.13088 23.781 4.34985 24 4.62026 24H8.70303C8.97343 24 9.1924 23.7808 9.1924 23.5106V13.5544H12.8512C13.1216 13.5544 13.3406 13.3354 13.3406 13.065L13.3421 9.11932C13.3421 8.98948 13.2904 8.86514 13.1988 8.77326C13.1071 8.68138 12.9823 8.62969 12.8525 8.62969H9.1924V6.32115C9.1924 5.21157 9.45681 4.64829 10.9022 4.64829L12.9988 4.64755C13.2689 4.64755 13.4879 4.42833 13.4879 4.15817V0.494367C13.4879 0.224462 13.2692 0.00549296 12.9993 0.0049936Z" fill="white"/>
</svg>
